<svg xmlns="http://www.w3.org/2000/svg" xmlns:xlink="http://www.w3.org/1999/xlink" viewBox="0,0,256,256" width="48px"
     height="48px" fill-rule="nonzero">
    <g fill="#c5c5c5" fill-rule="nonzero" stroke="none" stroke-width="1" stroke-linecap="butt"
       stroke-linejoin="miter" stroke-miterlimit="10" stroke-dasharray="" stroke-dashoffset="0" font-family="none"
       font-weight="none" font-size="none" text-anchor="none" style="mix-blend-mode: normal">
        <g transform="scale(5.33333,5.33333)">
            <path d="M22.5,6c-0.276,0 -0.5,0.224 -0.5,0.5v3c0,0.276 0.224,0.5 0.5,0.5h3c0.276,0 0.5,-0.224 0.5,-0.5v-3c0,-0.276 -0.224,-0.5 -0.5,-0.5zM10.5,12c-0.276,0 -0.5,0.224 -0.5,0.5v3c0,0.276 0.224,0.5 0.5,0.5h3c0.276,0 0.5,-0.224 0.5,-0.5v-3c0,-0.276 -0.224,-0.5 -0.5,-0.5zM16.5,12c-0.276,0 -0.5,0.224 -0.5,0.5v3c0,0.276 0.224,0.5 0.5,0.5h3c0.276,0 0.5,-0.224 0.5,-0.5v-3c0,-0.276 -0.224,-0.5 -0.5,-0.5zM22.5,12c-0.276,0 -0.5,0.224 -0.5,0.5v3c0,0.276 0.224,0.5 0.5,0.5h3c0.276,0 0.5,-0.224 0.5,-0.5v-3c0,-0.276 -0.224,-0.5 -0.5,-0.5zM37.47852,14.30078l-0.45312,0.65039c-0.567,0.874 -0.97966,1.83666 -1.22266,2.84766c-0.459,1.933 -0.18131,3.74783 0.80469,5.29883c-1.191,0.661 -3.22142,0.88834 -3.60742,0.90234h-31c-1.105,0 -2,0.895 -2,2c0,2 0.43372,4.92462 1.38672,7.51563c1.089,2.844 2.71036,4.9387 4.81836,6.2207c2.362,1.441 6.19978,2.26367 10.55078,2.26367c1.965,0.006 3.92737,-0.1713 5.85938,-0.5293c2.686,-0.491 5.27049,-1.42563 7.64648,-2.76562c1.958,-1.129 3.71975,-2.56591 5.21875,-4.25391c2.505,-2.824 3.99742,-5.96967 5.10742,-8.76367c0.005,-0.003 0.00867,-0.00381 0.01367,-0.00781c2.997,0.121 4.81106,-1.037 5.78906,-2c0.618,-0.584 1.10106,-1.29694 1.41406,-2.08594l0.19531,-0.57227l-0.47266,-0.37109c-0.13,-0.103 -1.3452,-1.01758 -3.9082,-1.01758c-0.677,0.003 -1.35253,0.06183 -2.01953,0.17383c-0.496,-3.385 -3.30564,-5.03733 -3.43164,-5.11133zM4.5,18c-0.276,0 -0.5,0.224 -0.5,0.5v3c0,0.276 0.224,0.5 0.5,0.5h3c0.276,0 0.5,-0.224 0.5,-0.5v-3c0,-0.276 -0.224,-0.5 -0.5,-0.5zM10.5,18c-0.276,0 -0.5,0.224 -0.5,0.5v3c0,0.276 0.224,0.5 0.5,0.5h3c0.276,0 0.5,-0.224 0.5,-0.5v-3c0,-0.276 -0.224,-0.5 -0.5,-0.5zM16.5,18c-0.276,0 -0.5,0.224 -0.5,0.5v3c0,0.276 0.224,0.5 0.5,0.5h3c0.276,0 0.5,-0.224 0.5,-0.5v-3c0,-0.276 -0.224,-0.5 -0.5,-0.5zM22.5,18c-0.276,0 -0.5,0.224 -0.5,0.5v3c0,0.276 0.224,0.5 0.5,0.5h3c0.276,0 0.5,-0.224 0.5,-0.5v-3c0,-0.276 -0.224,-0.5 -0.5,-0.5zM28.5,18c-0.276,0 -0.5,0.224 -0.5,0.5v3c0,0.276 0.224,0.5 0.5,0.5h3c0.276,0 0.5,-0.224 0.5,-0.5v-3c0,-0.276 -0.224,-0.5 -0.5,-0.5z"></path>
        </g>
    </g>
</svg>
