<?xml version="1.0" standalone="no"?>
<!DOCTYPE svg PUBLIC "-//W3C//DTD SVG 20010904//EN"
 "http://www.w3.org/TR/2001/REC-SVG-20010904/DTD/svg10.dtd">
<svg version="1.0" xmlns="http://www.w3.org/2000/svg"
 width="60.000000pt" height="60.000000pt" viewBox="0 0 60.000000 60.000000"
 preserveAspectRatio="xMidYMid meet">

<g transform="translate(0.000000,60.000000) scale(0.100000,-0.100000)"
fill="#000000" stroke="none">
<path d="M310 543 c23 -49 80 -141 80 -129 0 7 -66 121 -90 156 -6 8 -1 -4 10
-27z"/>
<path d="M274 546 c-3 -8 -4 -25 -2 -38 3 -17 5 -13 9 15 5 38 2 47 -7 23z"/>
<path d="M242 478 c-7 -7 -12 -16 -12 -21 0 -5 7 -1 16 8 9 9 14 18 12 20 -2
3 -10 -1 -16 -7z"/>
<path d="M280 475 c0 -6 16 -35 35 -65 22 -34 35 -66 34 -85 -1 -29 -1 -29 -9
-5 -7 21 -8 22 -9 4 -2 -48 -54 -59 -90 -20 -17 18 -22 32 -17 50 3 14 2 27
-3 31 -5 3 -12 -9 -14 -27 -3 -26 -4 -22 -5 15 l-2 47 -40 0 -40 0 0 -52 c0
-69 31 -124 92 -163 l47 -30 0 -77 1 -78 40 0 40 0 0 80 c0 67 3 82 18 88 45
18 102 66 111 94 6 17 11 55 11 84 l0 54 -40 0 c-37 0 -40 -2 -50 -37 -5 -21
-14 -45 -20 -53 -8 -12 -10 -11 -10 6 0 12 -11 38 -25 57 -13 20 -31 49 -39
64 -8 16 -15 23 -16 18z"/>
<path d="M261 455 c0 -5 6 -21 14 -35 8 -14 14 -20 14 -15 0 6 -6 21 -14 35
-8 14 -14 21 -14 15z"/>
<path d="M230 355 c0 -2 7 -8 15 -15 12 -10 15 -10 15 2 0 8 -7 15 -15 15 -8
0 -15 -1 -15 -2z"/>
</g>
</svg>
