<?xml version="1.0" encoding="UTF-8"?>
<svg xmlns="http://www.w3.org/2000/svg" xmlns:xlink="http://www.w3.org/1999/xlink" width="10px" height="16px" viewBox="0 0 10 15" version="1.1">
<g id="surface1">
<path style=" stroke:none;fill-rule:nonzero;fill:rgb(77.254902%,77.254902%,77.254902%);fill-opacity:1;" d="M 3.914062 10.6875 C 2.988281 10.5 2.171875 10.054688 1.460938 9.347656 C 0.484375 8.390625 0 7.234375 0 5.875 L 0 4.363281 L 2.136719 4.363281 L 2.136719 5.875 C 2.136719 6.609375 2.414062 7.230469 2.96875 7.746094 C 3.523438 8.265625 4.195312 8.523438 4.980469 8.523438 C 5.769531 8.523438 6.4375 8.265625 6.996094 7.746094 C 7.550781 7.230469 7.828125 6.609375 7.828125 5.875 L 7.828125 4.363281 L 9.964844 4.363281 L 9.964844 5.875 C 9.964844 7.234375 9.476562 8.390625 8.503906 9.347656 C 7.792969 10.054688 6.972656 10.5 6.046875 10.6875 L 6.046875 14.949219 L 3.914062 14.949219 Z M 3.914062 10.6875 "/>
<path style=" stroke:none;fill-rule:nonzero;fill:rgb(77.254902%,77.254902%,77.254902%);fill-opacity:1;" d="M 6.292969 7.488281 C 6.292969 7.488281 6.925781 6.664062 6.054688 5.359375 C 5.179688 4.054688 3.289062 2.054688 5.015625 0 C 5.015625 0 4.796875 1.199219 6.695312 3.449219 C 8.59375 5.699219 6.292969 7.488281 6.292969 7.488281 Z M 6.292969 7.488281 "/>
<path style=" stroke:none;fill-rule:nonzero;fill:rgb(77.254902%,77.254902%,77.254902%);fill-opacity:1;" d="M 2.734375 5.230469 C 2.734375 5.230469 3.054688 6.066406 3.488281 6.496094 C 3.734375 6.742188 4.308594 6.8125 3.835938 6.035156 C 3.359375 5.257812 2.589844 3.972656 3.71875 2.632812 C 3.71875 2.632812 3.910156 3.785156 5.347656 5.6875 C 6.785156 7.589844 5.089844 8.339844 4.066406 7.972656 C 3.066406 7.609375 2.609375 6.558594 2.734375 5.230469 Z M 2.734375 5.230469 "/>
</g>
</svg>
